<svg xmlns="http://www.w3.org/2000/svg" version="1.1" xmlns:xlink="http://www.w3.org/1999/xlink" xmlns:svgjs="http://svgjs.com/svgjs" width="1440" height="560" preserveAspectRatio="none" viewBox="0 0 1440 560"><g mask="url(&quot;#SvgjsMask1000&quot;)" fill="none"><rect width="1440" height="560" x="0" y="0" fill="#0e2a47"></rect><path d="M 0,263 C 57.6,226.6 172.8,104.6 288,81 C 403.2,57.4 460.8,135.4 576,145 C 691.2,154.6 748.8,119.6 864,129 C 979.2,138.4 1036.8,214.2 1152,192 C 1267.2,169.8 1382.4,52.8 1440,18L1440 560L0 560z" fill="#184a7e"></path><path d="M 0,288 C 96,339.6 288,533.8 480,546 C 672,558.2 768,364.6 960,349 C 1152,333.4 1344,444.2 1440,468L1440 560L0 560z" fill="#2264ab"></path></g><defs><mask id="SvgjsMask1000"><rect width="1440" height="560" fill="#ffffff"></rect></mask></defs></svg>